<?xml version="1.0" encoding="utf-8"?>
<!-- Svg Vector Icons : http://www.onlinewebfonts.com/icon -->
<!DOCTYPE svg PUBLIC "-//W3C//DTD SVG 1.1//EN" "http://www.w3.org/Graphics/SVG/1.1/DTD/svg11.dtd">
<svg version="1.1" xmlns="http://www.w3.org/2000/svg" xmlns:xlink="http://www.w3.org/1999/xlink" x="0px" y="0px" viewBox="0 0 1000 1000" enable-background="new 0 0 1000 1000" xml:space="preserve">
<metadata> Svg Vector Icons : http://www.onlinewebfonts.com/icon </metadata>
<g><g><path fill-opacity=".05" d="M500,451.7c13.8,0,25.3,4.6,34.5,13.8c9.2,9.2,13.8,20.7,13.8,34.5s-4.6,25.3-13.8,34.5s-20.7,13.8-34.5,13.8s-25.3-4.6-34.5-13.8c-9.2-9.2-13.8-20.7-13.8-34.5s4.6-25.3,13.8-34.5C474.7,456.3,486.2,451.7,500,451.7z M500,720.8c61.3,0,113.5-21.5,156.4-64.4c42.9-42.9,64.4-95.1,64.4-156.4s-21.5-113.5-64.4-156.4c-42.9-42.9-95.1-64.4-156.4-64.4s-113.5,21.5-156.4,64.4c-42.9,42.9-64.4,95.1-64.4,156.4s21.5,113.5,64.4,156.4C386.5,699.4,438.7,720.8,500,720.8z M500,10c135,0,250.4,47.9,346.2,143.8S990,365,990,500s-47.9,250.4-143.8,346.2S635,990,500,990c-135,0-250.4-47.9-346.2-143.8S10,635,10,500s47.9-250.4,143.8-346.2S365,10,500,10z"/></g></g>
</svg>