<?xml version="1.0" encoding="utf-8"?>
<!-- Svg Vector Icons : http://www.onlinewebfonts.com/icon -->
<!DOCTYPE svg PUBLIC "-//W3C//DTD SVG 1.1//EN" "http://www.w3.org/Graphics/SVG/1.1/DTD/svg11.dtd">
<svg version="1.1" xmlns="http://www.w3.org/2000/svg" xmlns:xlink="http://www.w3.org/1999/xlink" x="0px" y="0px" viewBox="0 0 1000 1000" enable-background="new 0 0 1000 1000" xml:space="preserve">
<metadata> Svg Vector Icons : http://www.onlinewebfonts.com/icon </metadata>
<g><path fill-opacity=".05" d="M839.2,424.6V500c0,86.8-29,162.3-86.9,226.4c-57.9,64.2-129.5,101-214.7,110.4v77.7h150.8c10.2,0,19,3.7,26.5,11.2c7.5,7.5,11.2,16.3,11.2,26.5c0,10.2-3.7,19-11.2,26.5c-7.5,7.5-16.3,11.2-26.5,11.2H311.5c-10.2,0-19-3.7-26.5-11.2c-7.5-7.5-11.2-16.3-11.2-26.5c0-10.2,3.7-19,11.2-26.5c7.5-7.5,16.3-11.2,26.5-11.2h150.8v-77.7c-85.2-9.4-156.8-46.2-214.7-110.4c-57.9-64.2-86.9-139.7-86.9-226.4v-75.4c0-10.2,3.7-19,11.2-26.5c7.5-7.5,16.3-11.2,26.5-11.2c10.2,0,19,3.7,26.5,11.2c7.5,7.5,11.2,16.3,11.2,26.5V500c0,72.6,25.8,134.8,77.4,186.4c51.6,51.6,113.8,77.4,186.4,77.4c72.6,0,134.8-25.8,186.4-77.4c51.6-51.6,77.4-113.8,77.4-186.4v-75.4c0-10.2,3.7-19,11.2-26.5c7.5-7.5,16.3-11.2,26.5-11.2c10.2,0,19,3.7,26.5,11.2C835.5,405.6,839.2,414.4,839.2,424.6z M688.5,198.5V500c0,51.8-18.5,96.2-55.4,133.1c-36.9,36.9-81.3,55.4-133.1,55.4c-51.8,0-96.2-18.5-133.1-55.4c-36.9-36.9-55.4-81.3-55.4-133.1V198.5c0-51.8,18.5-96.2,55.4-133.1C403.8,28.5,448.2,10,500,10c51.8,0,96.2,18.5,133.1,55.4C670,102.3,688.5,146.6,688.5,198.5L688.5,198.5z"/></g>
</svg>